<?xml version="1.0" standalone="no"?>
<!DOCTYPE svg PUBLIC "-//W3C//DTD SVG 1.1//EN" "http://www.w3.org/Graphics/SVG/1.1/DTD/svg11.dtd" >
<svg xmlns="http://www.w3.org/2000/svg">
<metadata>
Created by FontForge 20120731 at Mon Apr 10 14:52:02 2017
 By admin
</metadata>
<defs>
<font id="iconfont" horiz-adv-x="1024" >
  <font-face 
    font-family="iconfont"
    font-weight="500"
    font-stretch="normal"
    units-per-em="1024"
    panose-1="2 0 6 3 0 0 0 0 0 0"
    ascent="896"
    descent="-128"
    x-height="792"
    bbox="-0.5 -223.571 1025 896"
    underline-thickness="0"
    underline-position="0"
    unicode-range="U+0078-F0036"
  />
<missing-glyph 
 />
    <glyph glyph-name=".notdef" 
 />
    <glyph glyph-name=".null" horiz-adv-x="0" 
 />
    <glyph glyph-name="nonmarkingreturn" horiz-adv-x="341" 
 />
    <glyph glyph-name="x" unicode="x" horiz-adv-x="1001" 
d="M281 543q-27 -1 -53 -1h-83q-18 0 -36.5 -6t-32.5 -18.5t-23 -32t-9 -45.5v-76h912v41q0 16 -0.5 30t-0.5 18q0 13 -5 29t-17 29.5t-31.5 22.5t-49.5 9h-133v-97h-438v97zM955 310v-52q0 -23 0.5 -52t0.5 -58t-10.5 -47.5t-26 -30t-33 -16t-31.5 -4.5q-14 -1 -29.5 -0.5
t-29.5 0.5h-32l-45 128h-439l-44 -128h-29h-34q-20 0 -45 1q-25 0 -41 9.5t-25.5 23t-13.5 29.5t-4 30v167h911zM163 247q-12 0 -21 -8.5t-9 -21.5t9 -21.5t21 -8.5q13 0 22 8.5t9 21.5t-9 21.5t-22 8.5zM316 123q-8 -26 -14 -48q-5 -19 -10.5 -37t-7.5 -25t-3 -15t1 -14.5
t9.5 -10.5t21.5 -4h37h67h81h80h64h36q23 0 34 12t2 38q-5 13 -9.5 30.5t-9.5 34.5q-5 19 -11 39h-368zM336 498v228q0 11 2.5 23t10 21.5t20.5 15.5t34 6h188q31 0 51.5 -14.5t20.5 -52.5v-227h-327z" />
    <glyph glyph-name="detail" unicode="&#xe75e;" 
d="M753 743h-517q-46 0 -78.5 -32.5t-32.5 -78.5v-664q0 -46 32.5 -78.5t78.5 -32.5h517q45 0 77.5 32.5t32.5 78.5v664q0 46 -32.5 78.5t-77.5 32.5zM702 -10v0h-415v0q-13 0 -22.5 10t-9.5 23.5t9.5 23t22.5 9.5v0h415v0q13 0 22 -9.5t9 -23t-9 -23.5t-22 -10zM702 167v0
h-415v0q-13 1 -22.5 10.5t-9.5 23t9.5 23t22.5 10.5v0h415v0q13 -1 22 -10.5t9 -23t-9 -23t-22 -10.5zM702 344v0h-415v0q-13 1 -22.5 10.5t-9.5 23t9.5 23t22.5 10.5v0h415v0q13 -1 22 -10.5t9 -23t-9 -23t-22 -10.5zM702 522v0h-415v0q-13 0 -22.5 9.5t-9.5 23t9.5 23.5
t22.5 10v0h415v0q13 0 22 -10t9 -23.5t-9 -23t-22 -9.5z" />
    <glyph glyph-name="pause" unicode="&#xe607;" 
d="M389 109l319 184l-319 197v-381zM512 808q-103 0 -197.5 -40.5t-162.5 -108.5t-108 -162t-40 -197.5t40 -197.5t108 -162t162.5 -108t197.5 -40t197.5 40t162.5 108t108 162t40 197.5t-40 197.5t-108 162t-162.5 108.5t-197.5 40.5zM511.5 -107q-110.5 0 -204 54.5
t-148 148t-54.5 204t54.5 204t148.5 148t204 54.5t204 -54.5t148.5 -148t54.5 -204t-54.5 -204t-148.5 -148t-204.5 -54.5z" />
    <glyph glyph-name="pause1" unicode="&#xe66a;" 
d="M512 812q-139 0 -257 -68.5t-186.5 -186.5t-68.5 -257t68.5 -257t186.5 -186.5t257 -68.5t257 68.5t186.5 186.5t68.5 257t-68.5 257t-186.5 186.5t-257 68.5zM512 -116q-172 0 -294 122t-122 294t122 294t294 122t294 -122t122 -294t-122 -294t-294 -122zM320 492h128
v-384h-128v384zM576 492h128v-384h-128v384z" />
    <glyph glyph-name="edit" unicode="&#xf0036;" 
d="M1007 583l-57 -58l-179 181l57 58q17 18 42 18t42 -18l95 -95q17 -18 17 -43t-17 -43zM493 62h-179v181l417 423l179 -181zM374 218v-35h59v-60h35l72 73l-94 95zM721 575l-218 -220q-10 -11 0 -21t20 1l217 220q11 10 1 20.5t-20 -0.5zM194 593q-35 0 -59 -24.5
t-24 -58.5v-498q0 -35 24 -59t59 -24h498q34 0 58.5 24t24.5 59v221l111 111v-360q0 -69 -49 -117.5t-117 -48.5h-554q-69 0 -117.5 48.5t-48.5 117.5v554q0 68 48.5 117t117.5 49h498l-110 -111h-360z" />
    <glyph glyph-name="record" unicode="&#xe60a;" 
d="M8 202q4 -1 12 -4t12 -4v-2h4v-2h6v-2h4v-2h6v-2q2 0 5 -1t5 -1v-2h4v-2h6v-2h4v-2h6v-2h4v-2h6v-2q7 -1 10 -2v-2h4v-2h6v-2q3 -1 8 -2v-2h6v-2h4v-2h6v-2h4v-2h7v-2h4v-2h6v-2q1 0 4.5 -1t5.5 -1v-2h4v-2h6v-2h4v-2h6v-2h4v-2h6v-2h4v-2h6v-2l8 -2v-2q1 0 4.5 -1
t5.5 -1v-2h6v-2h4v-2h6v-2h4v-2h6v-2q1 0 4.5 -1t5.5 -1v-2h4v-2h6v-2h4v-2l18 -6l18 -6v-2q2 -1 8 -2v-2q10 -3 36 -12v-2h4v-2h6v-2h4v-2h6v-2q2 -1 5.5 -1.5t4.5 -0.5v-2h4v-2h6v-2h4v-2h6v-2q5 -2 8 -2v-2h6v-2h4v-2q7 -3 19 -7t17 -5q0 -45 5.5 -72t21.5 -51v-4l12 -10
q7 -9 8 -10h4l2 -4h4v-2q7 -2 8 -2v-2q3 0 12 -2v-2h14v-2q12 -3 36 4q11 2 16 2v2q1 0 2.5 0.5l3 1t2.5 0.5v2h6q1 3 2 4q1 0 4 1t4 1q0 1 1 2t1 2h4q8 9 12 14h4q0 1 1 2.5l1 1.5h2v4q5 4 8 6v4q1 1 3 2t3 2v4q3 2 4 2l2 6h2v4q1 1 2.5 1.5l1.5 0.5q0 2 1 4.5t1 3.5
q3 2 4 2v4h2v4h2v4h2v4h2v4h2v4q1 1 4 2v6h2v4h2v4h2v4h2q3 8 4 13h2v6h2q1 3 2 8h2v6h2q0 1 1 3.5t1 4.5h2q7 22 10 32h2v4h2q2 8 2 10h2v6h2v4h2v6h2v4h2q1 2 1.5 6t0.5 6h2v4h2q1 2 1.5 6.5t0.5 5.5h2v6h2v4h2v6h2v6h2v4h2q2 10 2 12h2v4h2q1 4 2 12h2v6h2v4h2q2 7 4 18
h2v6h2v4h2v6h2v6h2v6h2v6h2v4h2v6h2v6h2v6h2v6h2v4h3v6h1v6h3v6h1v6h3q0 3 0.5 7.5t1.5 4.5h2v4h2q1 8 2 13h2v6h2v6h2v6h2v6h2v6h2v6h2q0 4 2 12h2q0 2 0.5 6t1.5 6q6 17 18.5 53t19.5 53q7 25 10 36h2v6h2v6h2v6h2v6h2v6h2v6h2q0 3 1 7t1 5h2v8l10 30q-7 0 -20 4h-10v2
h-10v2h-10v2h-10v2q-19 2 -22 2q-6 2 -20 5.5t-21 4.5q-14 3 -40 6q-19 6 -60 13.5t-60 13.5q-6 0 -16 1.5t-14 2.5q-13 3 -40.5 8.5t-39.5 9.5q-14 1 -20 2q-6 2 -20.5 5t-20.5 5h-10q-23 7 -42 8q-3 -13 -6 -22h-2q0 -3 -1.5 -9t-2.5 -9h-2v-4h-2q-2 -12 -4 -19
q-6 -14 -17.5 -45.5t-18.5 -46.5q0 -3 -2 -12h-2v-6h-2v-4h-2q-1 -4 -2 -12h-2v-6q-14 -32 -37 -98.5t-37 -98.5l-2 -12h-2v-4h-2q-1 -3 -2.5 -9t-1.5 -9h-2v-4h-2q-1 -3 -2.5 -9t-1.5 -9h-2v-4h-2q-1 -3 -2.5 -9t-1.5 -9h-2v-4h-2v-6h-2v-6h-2q-1 -3 -2 -8h-2v-4
q-2 -1 -5.5 -4t-4.5 -4v-2h-4v-2q-2 -1 -4 -1.5t-4 -2.5q-22 -1 -31.5 4t-16.5 20t-4 24h2v8h2v6h2v6h2v6h2v4h2q0 3 1.5 9t2.5 9h2v4h2q0 4 2 12h2v4h2q1 9 2 13h2v6h2v4h2q1 4 4 18h2v4h2q0 2 1.5 8.5t2.5 9.5h2v4h2q0 3 1.5 9t2.5 9h2v4h2q0 3 1.5 9t2.5 9q12 28 33 87.5
t33 86.5q0 1 1 5.5t1 6.5h2v6h2v4h2q1 8 2 12h2v6h2v4h2q1 3 2 9t2 10q6 13 17 42.5t17 43.5v6h2q0 2 1 6t1 6h2q2 8 2 10h2q1 2 2 8h2v4q1 1 4 3t4 3v2h4q0 1 1 2t1 2h6v2h6v2h14v-2h12v-2h10v-2h10v-2h10v-2q14 -1 20 -2q6 -2 20.5 -5t20.5 -5h10v-2h10v-2h10v-2h10v-2h10
q20 -7 65 -14.5t65 -13.5h12q11 -4 35 -8.5t35 -7.5q19 -3 40 -6q18 -6 56 -12.5t55 -11.5q20 -3 30 -4v-2h10v-2h10v-2h10v-2h10v-2h6v-2h4q2 -2 7 -6t7 -6v-4q1 -1 3 -2h1q9 -17 -10 -65v-6h-2v-6h-2q0 -1 -2 -14h-2q-1 -8 -2 -12h-2v-6h-2v-6h-2v-6h-2v-6h-2v-6h-2v-6h-2
v-6h-2v-6h-2v-6h-2v-6h-2v-6h-2v-6h-2v-6h-2q-1 -8 -2 -12h-2v-8h-2v-6h-2v-6h-2v-6h-2v-6h-2v-4h-2v-6h-2v-6h-2v-6h-2v-6h-2v-6h-2v-6h-2v-6h-2v-6h-2v-6h-2q0 -2 -1 -6t-1 -6h-2q0 -2 -1 -6t-1 -6h-2v-4h-2q-1 -3 -1.5 -7.5l-0.5 -4.5h-2v-6h-2v-6h-2v-7h-2v-6h-2v-6h-2
v-6h-2v-6h-2v-6h-2v-6h-2q0 -1 -1 -5t-1 -7h-2v-4h-2q-2 -7 -2 -12h-2q-3 -10 -4 -18h-2v-4h-2q-1 -2 -1.5 -6.5t-0.5 -5.5q-2 -4 -6.5 -14t-5.5 -14q-1 -5 -4 -18h-2v-4h-2q-1 -3 -2.5 -9t-1.5 -9h-2v-4h-2q-1 -4 -2 -12h-2v-4h-2q-3 -12 -4 -18h-2v-4h-2q-1 -2 -1.5 -6
t-0.5 -6h-2v-4h-2q-1 -3 -2 -12h-2v-4h-2q-1 -2 -1.5 -6.5t-0.5 -5.5h-2v-4h-2v-6h-2v-6h-2v-4h-2v-6h-2v-4h-2q-1 -4 -2 -10h-2v-6h-2v-4h-2v-6h-2v-4h-3v-6h-1v-4h-3v-7h-1q-1 -1 -1.5 -3.5t-1.5 -4.5h-2v-6h-2q0 -1 -0.5 -3.5t-1.5 -4.5h-2v-6h-2q0 -2 -1.5 -6t-2.5 -6
h-2v-4h-2v-4h-2v-4h-2v-4h-2v-4h-2v-4h-2v-4h-2v-4h-2v-4h-2v-4h-2v-4l-1.5 -0.5t-2.5 -1.5q-1 -6 -2 -8q-1 0 -4 -2q-1 -5 -2 -8h-2q0 -1 -0.5 -3t-1.5 -3l-4 -2v-4q-1 -1 -6 -4v-4q-1 0 -4 -2v-4q-7 -6 -10 -8v-4q-3 -2 -9 -7.5t-9 -8.5q-5 -7 -8 -10h-4q-1 -1 -2 -3
t-2 -3h-4q-3 -5 -4 -6q-6 -2 -8 -2q-1 -3 -2 -4q-2 -1 -8 -2q-1 -3 -2 -4h-4v-2q-26 -12 -67 -18t-75 2q-2 0 -8.5 1t-9.5 1v2h-6v2h-6v2h-6v2q-8 1 -13 2v2h-4v2h-6v2q-2 1 -8 2v2h-4v2h-6v2h-4v2q-2 1 -12 4v2h-6v2h-4v2q-4 1 -12 4v2h-6v2h-4v2q-4 2 -12 4v2h-6v2h-4v2
q-4 1 -12 4v2h-6v2h-4v2l-12 4v2h-6v2h-4v2l-12 4v2h-6v2h-4v2l-12 4v2h-6v2h-4v2q-2 1 -8 2v2h-6v2h-4v2q-2 1 -6.5 2.5t-5.5 1.5v2h-6v2h-4v2q-7 3 -12 4v2q-8 2 -10 2v2q-2 1 -6 2.5t-6 1.5v2h-6v2h-4v2q-2 1 -6 2.5t-6 1.5v2q-8 3 -18 6v2h-4v2h-6v2h-4v2q-8 3 -13 4v2
h-6v2h-4v2h-4v2h-4v2h-6v2q-1 1 -5.5 2.5t-6.5 1.5v2q-2 1 -8 2v2q-3 2 -6 2q0 1 -2 4h-4q0 1 -0.5 2.5t-1.5 1.5h-4q-1 2 -3.5 5.5t-4.5 4.5h-4q-6 8 -10 12q0 1 -1.5 1.5t-2.5 0.5v4q-1 2 -4 4t-4 3v4l-4 2q-1 2 -2 6h-2v4q-3 1 -4 2l-4 12q-20 37 -20 90v34l8 40v0z
M457 581q26 1 39 -8v-2q6 -5 8 -6v-4h2q0 -1 1 -3t3 -3q0 -3 0.5 -10.5t1.5 -11.5h-2v-10q-3 -2 -3 -3t-1 -3h-2v-4q-2 0 -6 -2q-2 -3 -6 -8h-6v-2h-6v-2q-14 -4 -30 4.5t-19 17.5q-3 3 -5.5 13t-0.5 17q1 2 3.5 6.5t2.5 7.5q7 5 8 6v2h4l2 4q4 1 12 2v2zM792 483
q1 -2 2.5 -6.5t1.5 -5.5h2v-10h2q-1 -7 -4 -24h-2q0 -1 -0.5 -3.5t-1.5 -2.5q-2 -2 -7.5 -6t-8.5 -6h-6v-2q-9 -3 -30 4h-8v2h-6v2q-17 3 -22 4v2q-12 1 -16 2q-13 5 -43 13t-43 13q-21 5 -34 8q-1 1 -1.5 2t-0.5 2h-4v2q-3 2 -8 6v4h-2q-1 1 -1.5 3.5t-2.5 4.5
q-1 20 2 28.5t14 15.5q0 1 2 4h4v2h6q15 6 26 2v-2h6v-2q7 -1 19.5 -4t18.5 -4q14 -5 43.5 -13t42.5 -13q5 -1 18 -3.5t20 -4.5v-2h4v-2h6v-2q10 -7 12 -8zM441 349q-3 -2 -10 -6v-2q-2 -1 -10 -2v-2q-7 -2 -20.5 -0.5t-17.5 4.5q-1 0 -3 3t-3 5l-2.5 0.5t-3.5 1.5
q-1 5 -2 8q-1 0 -2 0.5t-2 1.5v10h-2v14h2v8h2v4h2q7 12 14 14q8 6 19.5 6t20.5 -4h6q1 -1 2.5 -3t1.5 -3h4q2 -2 5.5 -7t4.5 -7q1 -8 2 -26q0 -3 -3.5 -9t-4.5 -9zM718 254q-1 0 -3 -0.5t-3 -1.5v-2h-4v-2h-4v-2h-10v-2h-8v2h-12v2h-6v2h-6v2h-6v2h-6q-10 4 -33 12t-33 12
q-3 1 -9 2.5t-9 1.5v2h-8v2h-6v2h-6v2h-6v2h-6v2h-6v2h-6v2h-6v2h-6v2h-6v2h-4v2h-4q-5 6 -8 10q-2 1 -5 2q0 2 -0.5 4.5t-3.5 3.5q0 4 -0.5 11.5t-1.5 11.5q9 28 29 30q6 4 17.5 2.5t20.5 -4.5v-2h6v-2q1 -1 14 -2q16 -7 51 -18.5t51 -18.5h6v-2h6v-2q2 0 7 -0.5t7 -1.5v-2
h6v-2h6v-2h4v-2h4q1 0 4 -4t4 -6q1 0 2.5 -0.5t1.5 -1.5q1 -1 1.5 -3.5t2.5 -4.5q1 -18 0 -22v-8h-2q-1 -6 -2 -8h-2q-3 -3 -4 -8zM333 266q22 1 37 -8.5t15 -27.5q2 -2 2 -5.5t-1 -9t-1 -7.5q-3 -2 -3 -3t-1 -3h-2v-4h-2q0 -1 -1 -2t-1 -2h-4q-2 -4 -4 -6q-7 -1 -12 -2v-2
q-4 0 -13 1t-13 1v2q-1 0 -4.5 1t-5.5 1q-1 1 -2 3t-2 3h-4q0 1 -1 2q-1 3 -1 4h-2v4l-1.5 1t-2.5 1q-1 3 -2 13.5t0 14.5h2v6q6 9 10 14h4l4 6q8 2 12 2v2zM445 222q18 1 45 -10h6v-2h6v-2h6v-2h6v-2h6v-2h6v-2q3 -1 9 -2t9 -2q10 -4 33.5 -12t34.5 -12h6v-2h6v-2q2 0 6 -1
t6 -1v-2q1 0 4 -1t4 -1v-2h4q2 -2 4.5 -5.5t3.5 -4.5q3 -2 4 -2q1 -1 1.5 -3.5t2.5 -4.5q1 -7 2 -20h-2l-2 -14q-3 -2 -5.5 -6.5t-4.5 -5.5h-4v-2q-1 -1 -3 -2t-3 -2q-17 -2 -26 -2v2h-8v2h-6v2h-6v2h-6v2h-6v2q-12 2 -20 4v2h-6v2q-16 3 -18 4q-11 4 -33.5 12t-33.5 12
q-4 2 -19 5.5t-23.5 8.5t-11.5 14q-2 2 -2.5 3t-0.5 3t-1 4h-2q-1 5 0.5 16t3.5 14l4 2v4h2l4 6h4v2q1 1 3 2t3 2h8v2z" />
    <glyph glyph-name="user" unicode="&#xe66e;" 
d="M874 662q-73 73 -166.5 111.5t-196 38.5t-196 -38.5t-165.5 -111.5q-98 -98 -133 -230t0 -264t133 -230q72 -72 165.5 -111t196 -39t196 39t166.5 111q18 19 35 39v0q81 100 105 224t-12.5 246.5t-127.5 214.5zM891 29q-9 9 -20 14q-111 53 -236 71l4 30q33 26 36 56
l4 33q12 2 21 12t10 23l9 88q3 27 -22 39l5 37q8 91 -39 134q-55 54 -151.5 54t-150.5 -54q-48 -43 -39 -135l4 -35q-25 -13 -22 -40l9 -88q3 -28 31 -34q3 -26 4 -33q3 -31 36 -57l5 -29q-125 -19 -238 -72q-9 -5 -19 -14q-64 90 -81 199t16.5 215.5t114.5 186.5
q66 66 151 101.5t178.5 35.5t178.5 -35.5t151 -101.5q81 -80 115 -186.5t17 -215.5t-82 -199z" />
    <glyph glyph-name="contact" unicode="&#xe619;" 
d="M201 264h19q16 0 27 11t11 27v39q0 16 -11 27t-27 11h-19q-16 0 -27.5 -11t-11.5 -27v-41q0 -15 11.5 -25.5t27.5 -10.5zM783 703h-514q-32 0 -54.5 -22.5t-22.5 -54.5v-25q13 6 30 6q32 0 54.5 -22.5t22.5 -54.5v-422q0 -32 -22.5 -54.5t-54.5 -22.5q-14 0 -30 7v-45
q0 -32 22.5 -54.5t54.5 -22.5h514q32 0 54.5 22.5t22.5 54.5v633q0 32 -22.5 54.5t-54.5 22.5zM572 125v0v0v0q-40 0 -73 4.5t-52 11t-33 13.5t-19 11l-5 5q2 1 0.5 9t2 23.5t9 31.5t20.5 34t37 30l57 23q9 9 9 20v8q-19 13 -30 38q-13 0 -15.5 24t4.5 28q-11 102 86 102v0
v0v0v0q25 0 42.5 -7t25.5 -18.5t13 -25t4.5 -27t-0.5 -24.5q8 -4 5 -28t-16 -24q-9 -24 -30 -38v-8q1 -5 3.5 -10l3.5 -7l2 -3l58 -23q68 -38 68 -128l-5 -5t-17 -10.5t-32 -13.5t-51 -11t-72 -5v0zM759 125q-2 -2 -10 -6q-2 -1 -5.5 -3.5t-5.5 -3.5q2 2 11 7q2 2 10 6l5 2
q-5 0 -5 -2zM201 434h19q16 0 27 11.5t11 27.5v38q0 16 -11 27.5t-27 11.5h-19q-16 0 -27.5 -11.5t-11.5 -27.5v-38q0 -16 11.5 -27.5t27.5 -11.5zM220 91q16 0 27 11t11 27v39q0 16 -11 27t-27 11h-19q-16 0 -27.5 -11t-11.5 -27v-39q0 -16 11.5 -27t27.5 -11h19z" />
    <glyph glyph-name="horn" unicode="&#xe689;" horiz-adv-x="1029" 
d="M538 765q-13 6 -30 3.5t-30 -11.5l-265 -222h-158q-22 0 -38.5 -16.5t-16.5 -39.5v-358q0 -23 16.5 -39.5t38.5 -16.5h82v69h-69v337h171l260 222v-777l-252 213l-42 -51l273 -230q13 -13 34 -13q17 0 21 4q13 7 21.5 21.5t8.5 29.5v828q4 14 -3 27.5t-22 19.5zM700 569
l-43 -51q48 -42 75 -100.5t27 -121.5q0 -62 -25 -119.5t-73 -98.5l43 -51q57 51 88 120.5t31 143.5q4 82 -29 154t-94 124zM815 671l-34 -60q83 -48 131 -132t48 -183q0 -96 -48 -180t-131 -132l34 -55q96 58 152.5 157t56.5 214q3 112 -53.5 213t-155.5 158z" />
    <glyph glyph-name="login" unicode="&#xe6d7;" 
d="M140 853v-1q0 -18 13.5 -31t32.5 -13h576q13 0 22.5 -9t9.5 -21v-787q0 -13 -9.5 -22t-22.5 -9h-576q-19 0 -32.5 -12.5t-13.5 -30.5v-2q0 -18 13.5 -30.5t32.5 -12.5h630q28 0 48 19t20 46v894q0 27 -20 46t-48 19h-630q-19 0 -32.5 -12.5t-13.5 -30.5zM378 592v-77
q0 -14 -9.5 -24t-22.5 -10h-172q-14 0 -24 -10.5t-10 -25.5v-121q0 -15 10 -25.5t24 -10.5h172q13 0 22.5 -10t9.5 -24v-78q0 -16 13.5 -22.5t24.5 3.5l224 201q12 10 12 26t-12 26l-224 201q-11 10 -24.5 3.5t-13.5 -22.5z" />
    <glyph glyph-name="danger" unicode="&#xe6bb;" 
d="M945 773q-9 6 -24.5 15t-59.5 30t-91 36.5t-115.5 28.5t-135.5 13q-80 0 -154.5 -13t-121.5 -29t-89 -37t-55.5 -30t-21.5 -15q-8 -7 -8 -17q1 -33 4 -95.5t10.5 -179t25.5 -216t43 -138.5q25 -40 81 -83.5t121.5 -79.5t97 -51.5t53.5 -25.5q4 -1 8 -1t8 1q13 5 35 14.5
t73 35t94 52.5t86.5 65t63.5 74q23 44 40.5 144t26 215t11.5 175t4 94q0 12 -10 18zM541.5 195.5q-11.5 -11.5 -29.5 -11.5t-29.5 11.5t-11.5 29.5t11.5 29.5t29.5 11.5t29.5 -11.5t11.5 -29.5t-11.5 -29.5zM475 614q0 33 37 33q18 0 27.5 -7.5t9.5 -26.5v-264
q0 -19 -9.5 -26.5t-27.5 -7.5q-37 0 -37 33v266v0z" />
    <glyph glyph-name="blacklist" unicode="&#xe602;" 
d="M1011 -52l-66 65l63 62q13 13 13 31.5t-13 31.5t-31.5 13t-31.5 -13l-63 -63l-65 64q-13 13 -31 13.5t-31 -12.5t-13 -31.5t13 -31.5l64 -65l-63 -64q-14 -12 -14 -30t13 -32q13 -12 31.5 -12t31.5 12l64 64l65 -65q13 -13 31.5 -13t31.5 13q14 13 14 31.5t-13 31.5z
M740 246h5q-7 6 -16 12q-8 9 -20 12q-30 19 -61 33q65 44 103.5 115t38.5 153q0 88 -44 163t-119 118.5t-163.5 43.5t-163.5 -43.5t-118.5 -118.5t-43.5 -163q0 -82 38 -152.5t104 -115.5q-110 -48 -184.5 -144t-91.5 -216q-4 -7 -4 -17v-4q0 -20 14 -33.5t33 -13.5
t32.5 13.5t13.5 33.5v0h1q17 135 118.5 228t239.5 97q2 0 6 -0.5t6 -0.5q4 0 12 1q100 -3 186 -57q8 -7 15 -10q8 -6 17 -13v10q27 0 41 23h8zM463.5 339q-96.5 0 -164.5 68t-68 164t68 164t165 68q96 0 164 -68t68 -164t-68 -164t-164.5 -68z" />
    <glyph glyph-name="dataaplatform" unicode="&#xe622;" 
d="M279 669q0 91 23 116q10 12 32.5 27.5t40.5 24.5l17 10q3 2 8.5 5t19.5 10t25.5 12t22.5 8t15 1q7 -3 9.5 -26.5t2.5 -45.5v-21q-1 -85 -16 -109q-6 -11 -29 -27.5t-42 -27.5l-20 -12q-8 -4 -19.5 -10.5t-36 -18t-34.5 -10.5q-21 0 -19 94v0zM326 237q0 -6 21 -20t41 -25
l20 -10q81 -41 111 -41q13 0 40 10.5t47 20.5l20 10q72 35 82 54q2 2 0.5 5.5t-4.5 7.5t-8 8t-10.5 7.5t-12.5 8t-12.5 7.5t-12 6t-10.5 5l-7 3.5t-3 2.5q-84 44 -120 39q-16 -3 -42 -13.5t-44 -20.5l-17 -9q-2 -1 -4.5 -2.5t-11 -6t-16 -9t-16.5 -10t-15.5 -10.5t-11 -10
t-4.5 -8v0zM293 302q10 -1 32.5 9t40.5 20l17 11q77 42 91 66q7 11 11 38t4 49l1 22q2 85 -12 93q-6 4 -29 -5t-42 -20l-20 -11q-67 -35 -90 -62q-23 -25 -23 -116v-16.5t1 -30.5t5.5 -33.5t12.5 -13.5v0zM810 536q7 -11 30 -27.5t42 -28.5l20 -11q7 -4 19 -11t36.5 -18
t34.5 -11q21 1 18 95q0 90 -22 116q-10 12 -33 27.5t-40 24.5l-17 10l-9 4.5t-19 10t-25.5 12.5t-22.5 8t-15 1q-7 -4 -10 -27t-2 -45v-21q1 -85 15 -109v0zM735 512q-10 12 -33 27.5t-40 25.5l-17 9q-4 2 -9 5t-19 10t-25.5 12t-22.5 8t-15 1q-7 -3 -10 -26.5t-2 -45.5v-21
q1 -85 15 -109q7 -11 30 -27.5t42 -27.5l20 -11q7 -5 19 -11.5t36.5 -18t34.5 -10.5q8 0 12.5 13.5t5.5 33.5t1 30.5t-1 16.5q-2 94 -22 116v0zM552 681q7 -11 30 -27.5t42 -27.5l20 -12q7 -4 19 -11t36.5 -18t34.5 -10q21 0 18 94q0 91 -22 116q-10 12 -32.5 27.5
t-40.5 24.5l-17 10q-4 2 -9 5t-19 10t-25.5 12t-22.5 8t-15 1q-7 -3 -10 -26.5t-2 -45.5v-21q1 -85 15 -109v0zM217 263q6 11 10 38t5 49v22q2 85 -12 93q-6 3 -28.5 -6t-43 -19.5t-19.5 -10.5q-67 -35 -90 -62q-23 -26 -23 -116q-2 -94 19 -95q10 0 32.5 10t40.5 20l17 10
q77 43 92 67v0zM888 167q-87 44 -120 39q-16 -3 -42 -13.5t-44 -20.5l-17 -9q-2 -1 -4.5 -2.5t-11 -6t-16 -8.5t-16.5 -10t-15.5 -11t-11 -9.5t-4.5 -7.5q1 -15 82 -56q9 -4 23.5 -11t44 -18t43 -11t40.5 10t47 21l20 10q72 34 82 53q4 6 -7 16.5t-28.5 20.5t-28.5 16t-16 8
v0zM40 429q10 0 32.5 10t40.5 20l17 10q77 43 91 67q7 11 11 38t4 49l1 22q2 85 -12 93q-6 3 -28.5 -6t-43 -19.5t-19.5 -10.5q-67 -35 -90 -62q-23 -26 -23 -116q-2 -94 19 -95v0zM1015 251q1 9 0.5 26t-6 47.5t-16 42.5t-33.5 27.5t-40 24.5l-18 10q-3 2 -8 4.5t-19 10
t-25.5 12.5t-22.5 8t-15 1q-7 -4 -10 -27t-3 -45l1 -21q0 -85 15 -109q7 -11 29.5 -27.5t42.5 -28.5l20 -11q7 -4 19 -11t36.5 -18t34.5 -11q21 1 18 95v0zM445 99q3 6 -6 15.5t-26.5 20t-27 15.5t-19.5 9q-1 1 -2 1q-87 44 -120 39q-36 -6 -103 -43q-1 -1 -4 -2t-11 -5.5
t-15.5 -9t-17 -10.5t-16 -10.5t-10.5 -9.5t-4 -8q0 -7 20.5 -21t40.5 -24t21 -10q9 -5 23 -12t44 -18t43.5 -11t40.5 10.5t46.5 20t20.5 10.5q71 34 82 53v0zM625 30q-88 44 -120 39q-17 -2 -42.5 -13t-43.5 -20l-18 -9q-1 -1 -4 -2.5t-11 -6t-15.5 -9t-16.5 -10
t-15.5 -10.5t-11 -10t-4.5 -8q0 -7 20.5 -20.5t41 -24.5t20.5 -10q80 -41 110 -41q14 0 40.5 10.5t47.5 20.5l20 10q71 34 82 53q3 7 -6.5 17t-30.5 21.5t-26.5 14.5t-16.5 8v0zM625 30z" />
    <glyph glyph-name="money" unicode="&#xe6a8;" 
d="M954 385q-20 0 -101.5 43t-89.5 51t-6.5 16.5t11.5 10.5l79 10q-32 84 -98.5 145t-156.5 82q-94 22 -187.5 -8t-160.5 -103t-89 -170q-4 -22 -19 -22q-16 1 -59 21q-1 1 -5 2.5t-5 2t-3 2t-2 3t-0.5 4t0 5.5t1.5 8q15 74 53.5 140t92.5 113t121 79.5t139.5 39t148.5 -8.5
q151 -36 251 -155.5t111 -273.5q2 -19 -5.5 -28t-20.5 -9zM631 330q16 0 26.5 -10.5t10.5 -26t-10.5 -26t-26.5 -10.5h-73v-46q0 -19 -13.5 -32.5t-32.5 -13.5t-32.5 13.5t-13.5 32.5v46h-73q-15 0 -26 10.5t-11 26t11 26t26 10.5h73v37h-73q-15 0 -26 11t-11 26t11 25.5
t26 10.5h73v3l-81 81q-11 11 -11 26.5t11 26.5t26 11t26 -11l75 -75l74 75q11 11 26.5 11t26 -11t10.5 -26t-10 -26l-81 -81v-4h74q15 0 25.5 -10.5t10.5 -25.5t-10.5 -26t-25.5 -11h-74v-37h73zM263 278.5q12 -7.5 10 -19.5t-15 -13l-74 -7q34 -79 99 -135.5t150 -76.5
q95 -22 187.5 7t159 100.5t87.5 168.5q2 6 3 12t2.5 9t6 7t12.5 0q31 -11 71 -22q9 -2 10.5 -7t-0.5 -13q0 -4 -2 -11q-28 -126 -113.5 -219t-205 -130.5t-243.5 -8.5q-151 36 -251 155t-112 273q-1 25 14 32.5t34 -3.5q15 -8 86.5 -49.5t83.5 -49z" />
    <glyph glyph-name="password" unicode="&#xe6d8;" 
d="M512 895q-104 0 -198.5 -40.5t-163 -109t-109 -163t-40.5 -198.5t40.5 -199t109 -163.5t163 -109t198.5 -40.5t199 40.5t163.5 109t109 163.5t40.5 199t-40.5 198.5t-109 163t-163.5 109t-199 40.5zM512 -74q-93 0 -177.5 36.5t-146 97.5t-98 146t-36.5 178t36.5 177.5
t98 146t146 98t177.5 36.5t178 -36.5t146.5 -98t97.5 -146t36 -177.5t-36 -178t-97.5 -146.5t-146.5 -97.5t-178 -36zM620.5 662q-70.5 0 -120 -49.5t-49.5 -120.5q0 -28 9 -55l-204 -203q-22 -22 -22 -53.5t22 -53.5t53 -22t53 22l14 15h41q7 0 12.5 5t5.5 12v40h40
q7 0 12 5t5 12v40l76 75q26 -8 53 -8q70 0 120 49.5t50 120t-50 120t-120.5 49.5zM661.5 479q-21.5 0 -37 15.5t-15.5 37t15.5 37t37 15.5t37 -15.5t15.5 -37t-15.5 -37t-37 -15.5z" />
    <glyph glyph-name="danxuanfill" unicode="&#xe71e;" 
d="M512 830q-91 0 -173.5 -35.5t-142 -95t-95 -142t-35.5 -173.5t35.5 -173.5t95 -142t142 -95t173.5 -35.5t173.5 35.5t142 95t95 142t35.5 173.5t-35.5 173.5t-95 142t-142 95t-173.5 35.5zM512 224q-66 0 -113 47t-47 113t47 113t113 47t113 -47t47 -113t-47 -113
t-113 -47z" />
    <glyph glyph-name="danxuan" unicode="&#xe71f;" 
d="M512 830q-91 0 -173.5 -35.5t-142 -95t-95 -142t-35.5 -173.5t35.5 -173.5t95 -142t142 -95t173.5 -35.5t173.5 35.5t142 95t95 142t35.5 173.5t-35.5 173.5t-95 142t-142 95t-173.5 35.5zM512 2q-104 0 -192 51t-139 139t-51 192t51 192t139 139t192 51t192 -51
t139 -139t51 -192t-51 -192t-139 -139t-192 -51zM512 544q-66 0 -113 -47t-47 -113t47 -113t113 -47t113 47t47 113t-47 113t-113 47z" />
    <glyph glyph-name="fangxingweixuanzhong" unicode="&#xe720;" 
d="M832 -32h-640q-40 0 -68 28t-28 68v640q0 40 28 68t68 28h640q40 0 68 -28t28 -68v-640q0 -40 -28 -68t-68 -28zM192 736q-13 0 -22.5 -9.5t-9.5 -22.5v-640q0 -13 9.5 -22.5t22.5 -9.5h640q13 0 22.5 9.5t9.5 22.5v640q0 13 -9.5 22.5t-22.5 9.5h-640z" />
    <glyph glyph-name="fangxingxuanzhongfill" unicode="&#xe721;" 
d="M832 800h-640q-40 0 -68 -28t-28 -68v-640q0 -40 28 -68t68 -28h640q40 0 68 28t28 68v640q0 40 -28 68t-68 28zM727 458l-256 -259v-1v0q-2 -1 -7 -4q-1 -1 -2 -1.5t-2 -1.5q-6 -2 -12 -2t-12 2q-1 1 -2 1.5t-1 1.5q-6 3 -7 4v1h-1l-126 129q-9 10 -9 23t9.5 22.5t23 9
t22.5 -9.5l103 -106l234 236q9 9 22.5 9t22.5 -9.5t9.5 -22.5t-9.5 -22z" />
    <glyph glyph-name="fangxingxuanzhong" unicode="&#xe722;" 
d="M727 502.5q-9 9.5 -22.5 9.5t-22.5 -9l-234 -236l-103 106q-9 9 -22.5 9.5t-23 -9t-9.5 -22.5t9 -23l126 -129h1v-1q1 -1 7 -4q0 -1 1 -1.5t2 -1.5q6 -2 12 -2t12 2q1 1 2 1.5t2 1.5q5 3 7 4v0v1l256 259q10 9 9.5 22t-9.5 22.5zM832 -32h-640q-40 0 -68 28t-28 68v640
q0 40 28 68t68 28h640q40 0 68 -28t28 -68v-640q0 -40 -28 -68t-68 -28zM192 736q-13 0 -22.5 -9.5t-9.5 -22.5v-640q0 -13 9.5 -22.5t22.5 -9.5h640q13 0 22.5 9.5t9.5 22.5v640q0 13 -9.5 22.5t-22.5 9.5h-640z" />
    <glyph glyph-name="guanbi1" unicode="&#xe723;" 
d="M557 383l266 264q9 9 9 22t-9.5 22.5t-22.5 9.5t-23 -9l-265 -264l-263 264q-9 9 -22.5 9t-23 -9t-9.5 -22.5t10 -22.5l263 -264l-265 -264q-10 -9 -10 -22.5t9.5 -22.5t22.5 -9t23 9l265 264l265 -267q10 -9 23 -9t22.5 9.5t9.5 22.5t-9 23z" />
    <glyph glyph-name="guanbi2fill" unicode="&#xe724;" 
d="M512 832q-185 0 -316.5 -131.5t-131.5 -316.5t131.5 -316.5t316.5 -131.5t316.5 131.5t131.5 316.5t-131.5 316.5t-316.5 131.5zM695 246q9 -9 9 -22.5t-9.5 -23t-22.5 -9.5t-23 10l-137 138l-138 -137q-10 -9 -23 -9t-22.5 9.5t-9.5 22.5t10 23l138 136l-138 138
q-9 9 -9 22.5t9.5 23t22.5 9.5t23 -10l137 -138l138 137q10 9 23 9t22.5 -9.5t9.5 -22.5t-10 -23l-138 -136z" />
    <glyph glyph-name="guanbi2" unicode="&#xe725;" 
d="M512 -64q-185 0 -316.5 131.5t-131.5 316.5t131.5 316.5t316.5 131.5t316.5 -131.5t131.5 -316.5t-131.5 -316.5t-316.5 -131.5zM512 768q-104 0 -192.5 -51.5t-140 -140t-51.5 -192.5t51.5 -192.5t140 -140t192.5 -51.5t192.5 51.5t140 140t51.5 192.5t-51.5 192.5
t-140 140t-192.5 51.5zM557 383l138 136q10 10 10 23t-9.5 22.5t-22.5 9.5t-23 -9l-138 -137l-137 137q-9 9 -22 9t-22.5 -9t-9.5 -22.5t9 -22.5l136 -137l-137 -136q-9 -9 -9.5 -22.5t9 -23t22.5 -9.5q14 0 23 10l138 136l138 -140q10 -9 23 -9t22.5 9.5t9.5 22.5t-9 23z
" />
    <glyph glyph-name="jiahao" unicode="&#xe726;" 
d="M512 -62q-90 0 -171.5 33.5t-145 97t-97.5 145t-34 170.5t34 170.5t97.5 145t145 97t171.5 33.5t171.5 -33.5t145 -97t97.5 -145t34 -170.5t-34 -170.5t-97.5 -145t-145 -97t-171.5 -33.5zM512 766q-77 0 -147 -29t-124.5 -83t-83.5 -123.5t-29 -146.5t29 -146.5
t83.5 -123.5t124.5 -83t147 -29t147 29t124.5 83t83.5 124t29 146.5t-29 146t-83.5 123.5t-124.5 83t-147 29zM736 416h-192v192q0 13 -9.5 22.5t-22.5 9.5t-22.5 -9.5t-9.5 -22.5v-192h-192q-13 0 -22.5 -9.5t-9.5 -22.5t9.5 -22.5t22.5 -9.5h192v-192q0 -13 9.5 -22.5
t22.5 -9.5t22.5 9.5t9.5 22.5v192h192q13 0 22.5 9.5t9.5 22.5t-9.5 22.5t-22.5 9.5z" />
    <glyph glyph-name="jiahao1" unicode="&#xe727;" 
d="M863 415h-317v318q0 13 -9.5 22.5t-22.5 9.5t-22.5 -9.5t-9.5 -22.5v-318h-322v0q-14 0 -23 -9.5t-9.5 -22.5t9 -22.5t22.5 -9.5h323v-319q0 -14 9.5 -23t22.5 -9t22.5 9t9.5 23v319h317v0q13 0 22.5 9t9.5 22.5t-9 23t-23 9.5z" />
    <glyph glyph-name="jiahao2fill" unicode="&#xe728;" 
d="M828.5 699.5q-63.5 63.5 -145 97t-171.5 33.5t-171.5 -33.5t-145 -97t-97.5 -145t-34 -170.5t34 -170.5t97.5 -145t145 -97t171.5 -33.5t171.5 33.5t145 97t97.5 145t34 170.5t-34 170.5t-97.5 145zM736 352h-192v-192q0 -13 -9.5 -22.5t-22.5 -9.5t-22.5 9.5t-9.5 22.5
v192h-192q-13 0 -22.5 9.5t-9.5 22.5t9.5 22.5t22.5 9.5h192v192q0 13 9.5 22.5t22.5 9.5t22.5 -9.5t9.5 -22.5v-192h192q13 0 22.5 -9.5t9.5 -22.5t-9.5 -22.5t-22.5 -9.5z" />
    <glyph glyph-name="jianhao" unicode="&#xe729;" 
d="M864 352h-701q-13 0 -22.5 9.5t-9.5 22.5t9.5 22.5t22.5 9.5h701q13 0 22.5 -9.5t9.5 -22.5t-9.5 -22.5t-22.5 -9.5z" />
    <glyph glyph-name="tishifill" unicode="&#xe72a;" 
d="M512 830q-91 0 -173.5 -35.5t-142 -95t-95 -142t-35.5 -173.5t35.5 -173.5t95 -142t142 -95t173.5 -35.5t173.5 35.5t142 95t95 142t35.5 173.5t-35.5 173.5t-95 142t-142 95t-173.5 35.5zM544 160q0 -13 -9.5 -22.5t-22.5 -9.5t-22.5 9.5t-9.5 22.5v288q0 13 9.5 22.5
t22.5 9.5t22.5 -9.5t9.5 -22.5v-288zM512 544q-20 0 -34 14t-14 34t14 34t34 14t34 -14t14 -34t-14 -34t-34 -14z" />
    <glyph glyph-name="tishi" unicode="&#xe72b;" 
d="M512 -62q-91 0 -173.5 35.5t-142 95t-95 142t-35.5 173.5t35.5 173.5t95 142t142 95t173.5 35.5t173.5 -35.5t142 -95t95 -142t35.5 -173.5t-35.5 -173.5t-95 -142t-142 -95t-173.5 -35.5zM512 766q-104 0 -192 -51t-139 -139t-51 -192t51 -192t139 -139t192 -51t192 51
t139 139t51 192t-51 192t-139 139t-192 51zM464 592q0 -20 14 -34t34 -14t34 14t14 34t-14 34t-34 14t-34 -14t-14 -34zM512 128q-13 0 -22.5 9.5t-9.5 22.5v288q0 13 9.5 22.5t22.5 9.5t22.5 -9.5t9.5 -22.5v-288q0 -13 -9.5 -22.5t-22.5 -9.5z" />
    <glyph glyph-name="wenhaofill" unicode="&#xe72c;" 
d="M512 832q-185 0 -316.5 -131.5t-131.5 -316.5t131.5 -316.5t316.5 -131.5t316.5 131.5t131.5 316.5t-131.5 316.5t-316.5 131.5zM512 64q-20 0 -34 14t-14 34t14 34t34 14t34 -14t14 -34t-14 -34t-34 -14zM601 391q-19 -19 -28.5 -29t-19 -26t-9.5 -28v-54
q0 -13 -9.5 -22.5t-22.5 -9.5t-22.5 9.5t-9.5 22.5v54q0 25 13 50t25.5 39.5t36.5 38.5q18 17 26.5 26.5t17.5 23.5t9 24q0 40 -28 68.5t-68 28.5t-68 -27.5t-28 -67.5q0 -13 -9.5 -22.5t-22.5 -9.5t-22.5 9.5t-9.5 22.5q0 66 47 112.5t113 46.5t113 -47t47 -114
q0 -22 -12 -45.5t-24 -37t-35 -36.5z" />
    <glyph glyph-name="wenhao" unicode="&#xe72d;" 
d="M464 112q0 -20 14 -34t34 -14t34 14t14 34t-14 34t-34 14t-34 -14t-14 -34zM512 -64q-185 0 -316.5 131.5t-131.5 316.5t131.5 316.5t316.5 131.5t316.5 -131.5t131.5 -316.5t-131.5 -316.5t-316.5 -131.5zM512 768q-104 0 -192.5 -51.5t-140 -140t-51.5 -192.5
t51.5 -192.5t140 -140t192.5 -51.5t192.5 51.5t140 140t51.5 192.5t-51.5 192.5t-140 140t-192.5 51.5zM512 222q-13 0 -22.5 9.5t-9.5 22.5v54q0 25 13 50t25.5 39.5t36.5 38.5q18 18 26.5 27t17.5 23t9 24q0 40 -28 68.5t-68 28.5t-68 -27.5t-28 -67.5q0 -13 -9.5 -22.5
t-22.5 -9.5t-22.5 9.5t-9.5 22.5q0 66 47 112.5t113 46.5t113 -47t47 -114q0 -22 -12 -45.5t-24 -37t-35 -36.5q-19 -19 -28.5 -29t-19 -26t-9.5 -28v-54q0 -13 -9.5 -22.5t-22.5 -9.5z" />
    <glyph glyph-name="xuanze" unicode="&#xe72e;" 
d="M888 598q-10 9 -23 8.5t-22 -10.5l-427 -454l-233 230q-10 9 -23 9t-22.5 -9.5t-9.5 -23t10 -22.5l256 -253h1v0q1 -1 7 -4q0 -1 1 -1.5t2 -1.5q6 -2 12 -2t12 3q1 0 2 1t2 1q5 3 7 5v0v0l449 479q9 9 9 22.5t-10 22.5z" />
    <glyph glyph-name="yuanxingweixuanzhong" unicode="&#xe72f;" 
d="M512 -64q-185 0 -316.5 131.5t-131.5 316.5t131.5 316.5t316.5 131.5t316.5 -131.5t131.5 -316.5t-131.5 -316.5t-316.5 -131.5zM512 768q-159 0 -271.5 -112.5t-112.5 -271.5t112.5 -271.5t271.5 -112.5t271.5 112.5t112.5 271.5t-112.5 271.5t-271.5 112.5z" />
    <glyph glyph-name="yuanxingxuanzhongfill" unicode="&#xe730;" 
d="M512 830q-91 0 -173.5 -35.5t-142 -95t-95 -142t-35.5 -173.5t35.5 -173.5t95 -142t142 -95t173.5 -35.5t173.5 35.5t142 95t95 142t35.5 173.5t-35.5 173.5t-95 142t-142 95t-173.5 35.5zM727 458l-256 -259v-1v0q-2 -1 -7 -4q-1 -1 -2 -1.5t-2 -1.5q-6 -2 -12 -2t-12 2
q-1 1 -2 1.5t-1 1.5q-6 3 -7 4v1h-1l-126 129q-9 10 -9 23t9.5 22.5t23 9t22.5 -9.5l103 -106l234 236q9 9 22.5 9t22.5 -9t9.5 -22.5t-9.5 -22.5z" />
    <glyph glyph-name="yuanxingxuanzhong" unicode="&#xe731;" 
d="M512 -64q-185 0 -316.5 131.5t-131.5 316.5t131.5 316.5t316.5 131.5t316.5 -131.5t131.5 -316.5t-131.5 -316.5t-316.5 -131.5zM512 768q-104 0 -192.5 -51.5t-140 -140t-51.5 -192.5t51.5 -192.5t140 -140t192.5 -51.5t192.5 51.5t140 140t51.5 192.5t-51.5 192.5
t-140 140t-192.5 51.5zM727 502.5q-9 9.5 -22.5 9.5t-22.5 -9l-234 -236l-103 106q-9 9 -22.5 9.5t-23 -9t-9.5 -22.5t9 -23l126 -129h1v-1q1 -1 7 -4q0 -1 1 -1.5t2 -1.5q6 -2 12 -2t12 2q1 1 2 1.5t2 1.5q5 3 7 4v0v1l256 259q10 9 9.5 22t-9.5 22.5z" />
    <glyph glyph-name="biaoxingfill" unicode="&#xe732;" 
d="M957 491.5q-6 18.5 -25 21.5l-271 42l-120 259q-9 18 -29 18v0q-21 0 -29 -18l-122 -258l-271 -41q-19 -3 -25.5 -21.5t7.5 -32.5l196 -202l-47 -285q-3 -20 13.5 -31.5t33.5 -1.5l242 133l242 -134q7 -4 15 -4h1q13 0 22.5 9.5t9.5 22.5q0 6 -2 11l-45 279l197 201
q13 14 7 32.5z" />
    <glyph glyph-name="biaoxing" unicode="&#xe733;" 
d="M767 -64q-8 0 -15 4l-242 134l-242 -133q-17 -10 -33.5 1.5t-13.5 31.5l47 285l-196 202q-14 14 -7 32q5 18 24 22l155 26q14 3 24.5 -5t13 -21t-5.5 -23.5t-21 -13.5l-95 -16l165 -170q12 -12 9 -28l-39 -235l200 109q15 9 31 0l199 -110l-38 236q-3 16 9 27l164 169
l-225 34q-17 3 -24 18l-100 213l-100 -212q-5 -12 -17.5 -16.5t-24.5 1t-16.5 18t0.5 24.5l129 274q9 18 29 18v0q21 0 29 -18l121 -259l270 -41q20 -3 26 -21.5t-8 -32.5l-197 -202l46 -285q3 -19 -13 -31q-7 -6 -18 -6z" />
    <glyph glyph-name="sousuo" unicode="&#xe752;" 
d="M953 -12l-152 163q96 115 96 265q0 113 -56 209t-152 151.5t-208.5 55.5t-208.5 -55.5t-151.5 -151.5t-55.5 -209t55.5 -208.5t151.5 -151.5t209 -56q90 0 172 37q12 6 16.5 18.5t-1 24.5t-18 16.5t-24.5 -0.5q-69 -32 -145 -32q-96 0 -177 47t-128 128.5t-47 177
t47 176.5t128 128t176.5 47t176.5 -47t128.5 -128t47.5 -177q0 -141 -98 -244q-10 -9 -9.5 -22.5t9.5 -22.5q1 0 2 -1t1.5 -1t1 -1.5t1.5 -2.5l166 -177q9 -10 23 -10q12 0 22 9t10.5 22t-9.5 23z" />
    <glyph glyph-name="xiangshang1" unicode="&#xe76d;" 
d="M325 34zM882 34zM236 19zM960 19zM64 107zM958 107zM65 37zM861 157q32 0 45 31.5t-10 54.5l-349 349q-15 15 -35 15t-35 -15l-349 -349q-23 -24 -9.5 -55t44.5 -31h698v0zM960 37z" />
    <glyph glyph-name="xiangshang2" unicode="&#xe76e;" 
d="M887 279l-353 350l-1 0.5l-1 0.5v1q-10 9 -23 9t-22 -10l-350 -353q-10 -9 -10 -22.5t9.5 -22.5t23 -9t22.5 9l328 331l332 -330q10 -9 23 -9t22.5 9.5t9.5 23t-10 22.5z" />
    <glyph glyph-name="xiangxia1" unicode="&#xe771;" 
d="M325 34zM882 34zM236 19zM960 19zM64 107zM958 107zM65 37zM163 607q-31 0 -44.5 -31t9.5 -54l349 -350q15 -15 35 -15t35 15l349 350q23 22 10 53.5t-45 31.5h-698v0zM960 37z" />
    <glyph glyph-name="xiangxia2" unicode="&#xe772;" 
d="M890.5 565q-9.5 9 -23 9t-22.5 -9l-328 -331l-332 329q-10 10 -23 10t-22.5 -9.5t-9.5 -23t10 -22.5l353 -350l1 -0.5l1 -0.5v-1q10 -9 23 -9t22 9l350 354q10 9 10 22.5t-9.5 22.5z" />
    <glyph glyph-name="xiangyou1" unicode="&#xe775;" 
d="M761 364l1 1t1 2q7 13 4.5 28.5t-14.5 26.5l-353 334q-15 14 -34.5 13.5t-33.5 -15t-13 -34.5t15 -34l317 -299l-316 -305q-14 -13 -14.5 -33t13.5 -35q14 -14 35 -14q19 0 33 13l350 338l0.5 1t1 1t1 0.5l0.5 0.5q1 2 6 10z" />
    <glyph glyph-name="xiangyou3fill" unicode="&#xe777;" 
d="M512 832q-185 0 -316.5 -131.5t-131.5 -316.5t131.5 -316.5t316.5 -131.5t316.5 131.5t131.5 316.5t-131.5 316.5t-316.5 131.5zM662 360l-160 -158q-10 -10 -23 -10t-22.5 9.5t-9.5 23t10 22.5l137 136l-136 137q-10 9 -10 22.5t9.5 22.5t23 9t22.5 -9l159 -160v0v0
q4 -4 7 -10v0q8 -20 -7 -35z" />
    <glyph glyph-name="xiangyou3" unicode="&#xe778;" 
d="M512 -64q-185 0 -316.5 131.5t-131.5 316.5t131.5 316.5t316.5 131.5t316.5 -131.5t131.5 -316.5t-131.5 -316.5t-316.5 -131.5zM512 768q-159 0 -271.5 -112.5t-112.5 -271.5t112.5 -271.5t271.5 -112.5t271.5 112.5t112.5 271.5t-112.5 271.5t-271.5 112.5zM669 395v0
q-3 6 -7 10v0v0l-159 160q-9 9 -22.5 9t-23 -9t-9.5 -22.5t10 -22.5l136 -137l-138 -136q-9 -9 -9 -22.5t9.5 -23t22.5 -9.5t22 10l161 158q15 15 7 35z" />
    <glyph glyph-name="xiangzuo1" unicode="&#xe779;" 
d="M672 -16q-20 0 -34 14l-352 352q-14 14 -14 34t14 34l352 352q14 14 34 14t34 -14t14 -34t-14 -34l-318 -318l318 -318q14 -14 14 -34t-14 -34t-34 -14z" />
    <glyph glyph-name="jiazai" unicode="&#xe781;" 
d="M516 -73q-150 0 -271 90q-72 55 -117.5 131.5t-58.5 166.5t9 176.5t76 159.5q74 98 185 145t231 33t218 -87q63 -47 106.5 -113t61.5 -142q3 -13 -3.5 -24.5t-20 -14.5t-24.5 4t-15 20q-32 135 -144 218q-84 63 -186.5 75t-198 -28.5t-158.5 -124.5q-46 -62 -65 -136.5
t-8 -151t50 -142.5t101 -113q84 -63 187 -75t198 28.5t158 124.5q51 68 69 149q3 13 14 20.5t24 4.5t20.5 -14t4.5 -24q-21 -96 -80 -175q-54 -72 -131 -117.5t-167 -58.5q-32 -5 -65 -5z" />
    <glyph glyph-name="shuaxin" unicode="&#xe782;" 
d="M938.5 640.5q-12.5 4.5 -24.5 -1t-17 -18.5l-24 -69q-45 101 -134 166q-91 68 -203 81t-215.5 -30.5t-171.5 -134.5q-51 -67 -71.5 -146.5t-8.5 -162.5t54.5 -154t110.5 -121q112 -83 252 -83q98 0 187.5 43t150.5 124q55 72 74 160q3 13 -4 24.5t-20 14t-24.5 -4.5
t-13.5 -20q-17 -74 -63 -136q-58 -76 -146 -113t-183 -26t-172 68q-58 43 -94 103t-46 130q-21 145 68 261q58 77 146 114t182.5 26t172.5 -68q87 -65 123 -168l-110 43q-13 5 -25 -0.5t-17 -17.5t0.5 -24.5t17.5 -17.5l163 -63q5 -2 12 -2h0.5h0.5l1.5 -0.5t2.5 -0.5
q22 0 30 22l58 161q4 13 -1.5 25t-18 16.5z" />
    <glyph glyph-name="hungup" unicode="&#xe6a9;" horiz-adv-x="1026" 
d="M93 391h175q26 0 44.5 19t18.5 46v89q8 2 14 3q102 30 182.5 30t183.5 -30q11 -3 13 -3v-60v-29q0 -27 18.5 -46t44.5 -19h175q26 0 44.5 19t18.5 46v50h-1q-4 28 -16 56q-11 26 -27 45q-63 81 -169 116.5t-284 35.5q-93 0 -173.5 -16t-127.5 -35.5t-85.5 -45t-50 -36.5
t-17.5 -19q-16 -20 -27 -45q-12 -28 -16 -56h-1v-50q0 -27 18.5 -46t44.5 -19zM580 17h-105v261h-104l157 156l156 -156h-104v-261z" />
    <glyph glyph-name="member" unicode="&#xe635;" 
d="M673 383q-26 -39 -67.5 -61.5t-90.5 -22.5t-90.5 22.5t-67.5 61.5q-75 -26 -125.5 -88t-58.5 -142q6 -50 43.5 -84t88.5 -34h420q51 0 88.5 34t43.5 84q-9 80 -59 142t-125 88v0zM661 489.5q0 -60.5 -43 -103t-103.5 -42.5t-103 42.5t-42.5 103t42.5 103.5t103 43
t103.5 -43t43 -103.5zM739 495q50 0 84.5 35t34.5 84t-34.5 84t-84.5 35q-40 0 -71 -24t-42 -62q37 -25 60.5 -64t27.5 -85q13 -3 25 -3zM868 527q-21 -31 -55 -49.5t-74 -18.5q-10 0 -25 2q-2 -21 -8 -41q60 -24 107 -70t72 -105h25q41 0 71.5 27.5t35.5 68.5
q-7 65 -47.5 115.5t-101.5 70.5zM285 495q-50 0 -84.5 35t-34.5 84t34.5 84t84.5 35q40 0 71 -24t42 -62q-37 -25 -60.5 -64t-27.5 -85q-13 -3 -25 -3zM156 527q21 -31 55 -49.5t74 -18.5q10 0 25 2q2 -21 8 -41q-60 -24 -107 -70t-72 -105h-25q-41 0 -71.5 27.5t-35.5 68.5
q7 65 47.5 115.5t101.5 70.5v0z" />
    <glyph glyph-name="icon-set" unicode="&#xe623;" 
d="M970 275q-10 19 -19 24l-82 53q0 5 2 13t2 16v29l73 58q11 11 13.5 27t-4.5 31l-86 149l-5 5q-24 24 -53 10l-92 -34q-7 5 -24 14.5t-24 14.5l-14 87q0 19 -10 29q-19 19 -39 19h-163q-16 0 -32.5 -13.5t-16.5 -30.5l-14 -91q-29 -19 -48 -29v0l-87 34q-2 0 -8 2t-11 2
q-20 0 -39 -19l-5 -5l-82 -144q-4 -5 -4 -19q0 -26 19 -39v0l77 -58v0q0 -4 -2.5 -12.5t-2.5 -16.5v-29l-72 -58q-11 -11 -14 -27t4 -30l87 -150l5 -5q24 -24 53 -9l91 34q8 -5 24.5 -15t24.5 -14l14 -92q0 -18 15 -30.5t33 -12.5h164q16 0 32 13t16 30l15 92q7 4 24 14
t24 15l87 -34q4 -5 19 -5q27 0 43 24l82 145q10 9 10 38v0zM531 208q-69 0 -121 50t-52 118q0 69 50.5 119t122.5 50q69 0 121.5 -50t52.5 -119t-51 -118.5t-123 -49.5z" />
    <glyph glyph-name="member1" unicode="&#xe61a;" 
d="M61 553q2 7 3 8q5 17 19 27.5t31 11.5t31.5 -7.5t22.5 -23.5q16 -33 -8 -62q-1 -1 -1.5 -2t-2 -2t-1.5 -2q74 -45 125 -76q39 -25 47 -29q13 -8 21 5q24 44 143 261q-34 17 -35 51q-2 25 17 43q17 17 42 15.5t41 -20.5q17 -22 11 -46t-34 -43l37 -68q63 -114 104 -189
q6 -11 11 -12t16 5q62 38 161 98q0 1 7 5q-17 18 -19 39q-1 22 12.5 39t33.5 20q22 4 40 -7t25 -32q0 -1 2 -7v-19q-14 -46 -60 -47q-3 -9 -3 -10q-6 -19 -94 -322q-3 -10 -8 -14t-15 -4h-541q-11 0 -16 3.5t-8 14.5q-56 192 -76 262q-2 5 -21 70q-37 1 -53 31q-1 0 -7 16
v19v0zM61 553zM512 81h253q17 0 29 -10.5t14 -27t-7.5 -29.5t-26.5 -17q-4 -1 -9 -1h-506q-14 0 -25.5 8t-15.5 21t0 26.5t15 20.5q14 8 28 9h251v0v0zM512 81z" />
    <glyph glyph-name="download" unicode="&#xe8c3;" 
d="M213.5 512q-19.5 0 -31 11.5t-11.5 31.5q0 124 87 211t211 87q96 0 175 -58t111 -151q4 -17 -4 -32.5t-26 -18.5q-15 -6 -32 1.5t-23 24.5q-19 67 -74.5 108t-126.5 41q-89 0 -151 -62t-62 -151q0 -20 -11.5 -31.5t-31 -11.5zM768 171q-19 0 -31 11.5t-12 31t12 31
t31 11.5q70 0 120.5 50t50.5 120.5t-50.5 120.5t-120.5 50q-30 0 -43 -4q-16 -3 -32 5.5t-19 24.5t5.5 32t24.5 19q43 9 64 9q106 0 181 -75.5t75 -181t-75 -180.5t-181 -75zM341 171h-128q-19 0 -30.5 11.5t-11.5 31t11.5 31t30.5 11.5h128q20 0 31.5 -11.5t11.5 -31
t-11.5 -31t-31.5 -11.5zM768 171h-85q-20 0 -31.5 11.5t-11.5 31t11.5 31t31.5 11.5h85q19 0 31 -11.5t12 -31t-12 -31t-31 -11.5zM213 171q-89 0 -151 61.5t-62 151.5t62 151.5t151 61.5q20 0 31.5 -11.5t11.5 -31t-11.5 -31t-31.5 -11.5q-54 0 -91 -37t-37 -91t37 -91
t91 -37q20 0 31.5 -11.5t11.5 -31t-11.5 -31t-31.5 -11.5zM512 -85q-19 0 -31 11.5t-12 30.5v384q0 20 12 31.5t31 11.5t31 -11.5t12 -31.5v-384q0 -19 -12 -30.5t-31 -11.5zM512 -85q-17 0 -30 12.5t-13 29.5t13 30l128 128q13 13 30 13t30 -13t13 -30t-13 -30l-128 -128
q-13 -12 -30 -12zM512 -85q-17 0 -30 12l-128 128q-13 13 -13 30t13 30t30 13t30 -13l128 -128q13 -13 13 -30t-13 -29.5t-30 -12.5z" />
    <glyph glyph-name="list" unicode="&#xe67d;" 
d="M915 161v0.5v0.5q1 4 1 7v579q0 50 -35.5 85.5t-85.5 35.5h-566q-50 0 -85.5 -35.5t-35.5 -85.5v-728q0 -50 35.5 -85.5t85.5 -35.5h417q4 0 8 1h1h1q5 2 5.5 2t1 0.5l0.5 0.5q4 2 5 3q4 2 6 5l230 230q4 3 7 8q0 1 1 3q2 5 3 9zM189 20v728q0 17 11.5 28.5t28.5 11.5
h566q17 0 28.5 -11.5t11.5 -28.5v-538h-135q-50 0 -72.5 -22t-22.5 -72v-136h-376q-17 0 -28.5 11.5t-11.5 28.5zM312 586h402q17 0 29 12t12 28.5t-12 28.5t-29 12h-402q-17 0 -28.5 -12t-11.5 -28.5t11.5 -28.5t28.5 -12zM312 422h402q17 0 29 12t12 28.5t-12 28.5t-29 12
h-402q-17 0 -28.5 -12t-11.5 -28.5t11.5 -28.5t28.5 -12zM555 343h-245q-17 0 -28.5 -11.5t-11.5 -28.5t11.5 -29t28.5 -12h245q16 0 28 12t12 29t-12 28.5t-28 11.5z" />
    <glyph glyph-name="delete" unicode="&#xe62f;" 
d="M74 735q0 22 16 37.5t38 15.5h274v52q0 22 16 37.5t38 15.5h110q22 0 38 -15.5t16 -37.5v-52h274q22 0 38 -15.5t16 -37.5v-52h-874v52v0zM894 578v-649q0 -22 -16 -37t-39 -15h-656q-23 0 -39 15t-16 37v701h766v-52zM347 472q0 22 -16 37.5t-38.5 15.5t-38.5 -15.5
t-16 -37.5v-438q0 -22 16 -37t38.5 -15t38.5 15t16 37v438v0zM566 472q0 22 -16 37.5t-39 15.5t-39 -15.5t-16 -37.5v-438q0 -22 16 -37t39 -15t39 15t16 37v438zM784 472q0 22 -16 37.5t-38.5 15.5t-38.5 -15.5t-16 -37.5v-438q0 -22 16 -37t38.5 -15t38.5 15t16 37v438z
" />
    <glyph glyph-name="iconfonthorn" unicode="&#xe603;" horiz-adv-x="1233" 
d="M843 839q-12 6 -28.5 4t-28.5 -12l-255 -214h-152q-22 0 -38 -15.5t-16 -37.5v-345q0 -22 16 -38t38 -16h78v66h-66v325h165l250 214v-749l-242 206l-41 -49l263 -222q12 -13 33 -13q16 0 20 4q13 7 21 20.5t8 29.5v797q3 13 -3.5 26.5t-21.5 18.5v0z" />
    <glyph glyph-name="call" unicode="&#xe60d;" 
d="M808 41q22 41 12 72.5t-52 62.5q-36 28 -63.5 42t-57 13t-51.5 -26q-2 -2 -6 -5t-19.5 -5.5t-35 2.5t-53.5 26t-74 58q-45 44 -71.5 81.5t-32 60.5t-4 39.5t7.5 22.5l6 7q16 16 22.5 32t7 28.5t-8.5 31t-17 30t-25 34.5q-4 5 -6 8q-25 34 -49 49t-53 11.5t-63 -30.5
q-38 -31 -44 -79.5t11.5 -99t50.5 -106t66 -97t65 -74.5v0q17 -16 43.5 -42.5t89 -80.5t102.5 -76l49 -27q36 -18 71 -28t70 -8.5t62 17.5v0q27 15 50 56zM489 829q-3 0 -8.5 -0.5t-7.5 -0.5v-95q2 0 7.5 0.5t8.5 0.5q99 0 183 -49t133 -133t49 -183q0 -22 -4 -48h96
q3 24 3 48q0 93 -36.5 178.5t-98 147t-146.5 98t-179 36.5zM489 638h-16v-96q1 0 7 0.5t9 0.5q72 0 123 -51t51 -123q0 -22 -7 -48h98q5 25 5 48q0 111 -79 190t-191 79z" />
    <glyph glyph-name="xls" unicode="&#xe657;" 
d="M587 671v-45h103v-81h-103v-18h103v-81h-103v-17h103v-90h-103v-18h103v-81h-103v-18h103v-81h-103v-45h300v575h-300zM826 141h-119v81h119v-81zM826 240h-119v81h119v-81zM826 339h-119v90h119v-90zM826 447h-119v81h119v-81zM826 546h-119v81h119v-81zM132 88l437 -81
v754l-437 -81v-592zM237 517h78l40 -83l39 83h77l-71 -130l78 -139h-79l-45 86l-45 -86h-79l79 140z" />
    <glyph glyph-name="word" unicode="&#xe658;" 
d="M595 664v-50h229v-32h-229v-51h229v-32h-229v-50h229v-32h-229v-50h229v-32h-229v-51h229v-32h-229v-50h229v-32h-229v-66h294v560h-294zM135 681v-594l425 -80v754zM443 255h-63l-40 176l-50 -176h-43l-60 260h61l24 -162l41 178h64l35 -194l37 194h61z" />
    <glyph glyph-name="star" unicode="&#xe612;" 
d="M796 -128h-363l234 279l357 -20v-31q0 -95 -66.5 -161.5t-161.5 -66.5v0zM956 764l-347 -71l-285 203h472v0q95 0 161.5 -66.5t66.5 -161.5v-537l-186 312zM0 345v323q0 95 66.5 161.5t161.5 66.5h96l-28 -340l-296 -211v0zM433 -128h-205q-95 0 -161.5 66.5t-66.5 161.5
v245l332 -124z" />
  </font>
</defs>
</svg>
